<svg width="32" height="32" viewBox="0 0 32 32" fill="none" xmlns="http://www.w3.org/2000/svg">
<g filter="url(#filter0_b_6864_49)">
<rect width="32" height="32" rx="5" fill="white" fill-opacity="0.8"/>
</g>
<path fill-rule="evenodd" clip-rule="evenodd" d="M12.2993 9.20801C10.0891 9.20801 8.29102 11.0086 8.29102 13.2413C8.29102 15.9501 9.54158 18.1204 11.1154 19.7329C12.6967 21.3531 14.566 22.368 15.6846 22.7499L15.6907 22.7519L15.6907 22.752C15.7447 22.771 15.8565 22.7913 15.9993 22.7913C16.1422 22.7913 16.254 22.771 16.308 22.752L16.3141 22.7498L16.3141 22.7499C17.4327 22.368 19.302 21.3531 20.8833 19.7329C22.4571 18.1204 23.7077 15.9501 23.7077 13.2413C23.7077 11.0086 21.9096 9.20801 19.6993 9.20801C18.3975 9.20801 17.2302 9.8406 16.5011 10.8223C16.3832 10.9811 16.1971 11.0747 15.9993 11.0747C15.8016 11.0747 15.6155 10.9811 15.4976 10.8223C14.7681 9.84009 13.6089 9.20801 12.2993 9.20801ZM7.04102 13.2413C7.04102 10.3241 9.39292 7.95801 12.2993 7.95801C13.7466 7.95801 15.0532 8.54633 15.9996 9.49527C16.9481 8.54604 18.2595 7.95801 19.6993 7.95801C22.6058 7.95801 24.9577 10.3241 24.9577 13.2413C24.9577 16.3659 23.5082 18.8331 21.7779 20.606C20.0563 22.3699 18.0189 23.4881 16.7207 23.9319C16.4921 24.0119 16.2304 24.0413 15.9993 24.0413C15.7683 24.0413 15.5066 24.0119 15.278 23.9319C13.9798 23.4881 11.9424 22.3699 10.2208 20.606C8.49045 18.8331 7.04102 16.3659 7.04102 13.2413Z" fill="#025595"/>
<defs>
<filter id="filter0_b_6864_49" x="-20" y="-20" width="72" height="72" filterUnits="userSpaceOnUse" color-interpolation-filters="sRGB">
<feFlood flood-opacity="0" result="BackgroundImageFix"/>
<feGaussianBlur in="BackgroundImageFix" stdDeviation="10"/>
<feComposite in2="SourceAlpha" operator="in" result="effect1_backgroundBlur_6864_49"/>
<feBlend mode="normal" in="SourceGraphic" in2="effect1_backgroundBlur_6864_49" result="shape"/>
</filter>
</defs>
</svg>
