<svg width="58" height="38" viewBox="0 0 58 38" fill="none" xmlns="http://www.w3.org/2000/svg">
<path d="M3.7194 38H54.3861C56.1277 38 57.5527 36.575 57.5527 34.8333C57.5527 33.0917 56.1277 31.6667 54.3861 31.6667H3.7194C1.97773 31.6667 0.552734 33.0917 0.552734 34.8333C0.552734 36.575 1.97773 38 3.7194 38ZM3.7194 22.1667H54.3861C56.1277 22.1667 57.5527 20.7417 57.5527 19C57.5527 17.2583 56.1277 15.8333 54.3861 15.8333H3.7194C1.97773 15.8333 0.552734 17.2583 0.552734 19C0.552734 20.7417 1.97773 22.1667 3.7194 22.1667ZM0.552734 3.16667C0.552734 4.90833 1.97773 6.33333 3.7194 6.33333H54.3861C56.1277 6.33333 57.5527 4.90833 57.5527 3.16667C57.5527 1.425 56.1277 0 54.3861 0H3.7194C1.97773 0 0.552734 1.425 0.552734 3.16667Z" fill="#025595"/>
</svg>
