<svg width="36" height="36" viewBox="0 0 36 36" fill="none" xmlns="http://www.w3.org/2000/svg">
<rect width="36" height="36" rx="5" fill="#025595" fill-opacity="0.05"/>
<path d="M22.1337 21.4529C21.1755 21.4529 20.3121 21.8667 19.7129 22.525L14.3234 19.187C14.4673 18.8186 14.5471 18.4185 14.5471 18C14.5471 17.5813 14.4673 17.1812 14.3234 16.813L19.7129 13.4748C20.3121 14.1331 21.1755 14.5471 22.1337 14.5471C23.9388 14.5471 25.4073 13.0786 25.4073 11.2735C25.4073 9.46835 23.9388 8 22.1337 8C20.3286 8 18.8601 9.4685 18.8601 11.2736C18.8601 11.6922 18.9401 12.0922 19.0838 12.4606L13.6944 15.7986C13.0952 15.1403 12.2319 14.7264 11.2736 14.7264C9.4685 14.7264 8 16.195 8 18C8 19.8051 9.4685 21.2736 11.2736 21.2736C12.2319 21.2736 13.0952 20.8598 13.6944 20.2014L19.0838 23.5394C18.9401 23.9077 18.8601 24.3078 18.8601 24.7265C18.8601 26.5315 20.3286 28 22.1337 28C23.9388 28 25.4073 26.5315 25.4073 24.7265C25.4073 22.9214 23.9388 21.4529 22.1337 21.4529ZM20.0538 11.2736C20.0538 10.1268 20.9869 9.19369 22.1337 9.19369C23.2806 9.19369 24.2137 10.1268 24.2137 11.2736C24.2137 12.4205 23.2806 13.3535 22.1337 13.3535C20.9869 13.3535 20.0538 12.4205 20.0538 11.2736ZM11.2736 20.0799C10.1266 20.0799 9.19354 19.1468 9.19354 18C9.19354 16.8531 10.1266 15.9201 11.2736 15.9201C12.4205 15.9201 13.3534 16.8531 13.3534 18C13.3534 19.1468 12.4205 20.0799 11.2736 20.0799ZM20.0538 24.7263C20.0538 23.5795 20.9869 22.6464 22.1337 22.6464C23.2806 22.6464 24.2137 23.5795 24.2137 24.7263C24.2137 25.8732 23.2806 26.8063 22.1337 26.8063C20.9869 26.8063 20.0538 25.8732 20.0538 24.7263Z" fill="#025595"/>
</svg>
